<svg xmlns="http://www.w3.org/2000/svg" viewBox="0 0 1200 900">
  <defs><linearGradient id="g" x1="0" y1="0" x2="1" y2="1"><stop stop-color="#0d3b23"/><stop offset=".55" stop-color="#4d9a4b"/><stop offset="1" stop-color="#b4d36a"/></linearGradient><radialGradient id="r" cx=".5" cy=".1" r=".9"><stop stop-color="#fff0b9" stop-opacity=".75"/><stop offset="1" stop-color="#062014" stop-opacity="0"/></radialGradient></defs>
  <rect width="1200" height="900" fill="url(#g)"/><rect width="1200" height="900" fill="url(#r)"/>
  <path d="M0 655 C220 560 415 565 620 620 C815 675 1000 650 1200 535 L1200 900 L0 900Z" fill="#0b2e1c" opacity=".8"/>
  <ellipse cx="650" cy="675" rx="440" ry="120" fill="#74af55" opacity=".95"/>
  <ellipse cx="650" cy="675" rx="115" ry="32" fill="#17321f" opacity=".82"/>
  <circle cx="360" cy="662" r="26" fill="#fff"/>
  <path d="M385 650 C500 618 565 630 636 660" stroke="#ffffff" stroke-opacity=".8" stroke-width="8" stroke-linecap="round" fill="none" stroke-dasharray="18 22"/>
  <path d="M845 635 l125 -305" stroke="#d9dde2" stroke-width="18" stroke-linecap="round"/><path d="M958 342 l68 -28" stroke="#1b1b1b" stroke-width="20" stroke-linecap="round"/>
  <g opacity=".25" fill="#fff"><circle cx="180" cy="160" r="5"/><circle cx="220" cy="212" r="4"/><circle cx="965" cy="180" r="6"/><circle cx="1020" cy="246" r="4"/></g>
</svg>
