<svg xmlns="http://www.w3.org/2000/svg" viewBox="0 0 1200 900">
  <defs>
    <linearGradient id="sky" x1="0" y1="0" x2="0" y2="1"><stop stop-color="#dff4ff"/><stop offset=".65" stop-color="#f8e8b5"/><stop offset="1" stop-color="#d8b45d"/></linearGradient>
    <linearGradient id="green" x1="0" y1="0" x2="1" y2="1"><stop stop-color="#2f7d40"/><stop offset="1" stop-color="#0c3a22"/></linearGradient>
    <filter id="blur"><feGaussianBlur stdDeviation="22"/></filter>
  </defs>
  <rect width="1200" height="900" fill="url(#sky)"/>
  <circle cx="965" cy="170" r="92" fill="#fff1b8" opacity=".9"/>
  <path d="M0 570 C220 470 360 520 560 450 C790 370 980 410 1200 320 L1200 900 L0 900Z" fill="#134a2d"/>
  <path d="M120 900 C310 670 520 560 720 510 C860 477 990 475 1200 525 L1200 900Z" fill="url(#green)"/>
  <path d="M483 900 C560 700 630 590 720 516 C760 682 810 792 870 900Z" fill="#86bd63" opacity=".85"/>
  <path d="M686 610 C790 574 895 580 998 622 C902 658 791 660 686 610Z" fill="#d7c181" opacity=".9"/>
  <g opacity=".45" filter="url(#blur)"><ellipse cx="210" cy="735" rx="230" ry="90" fill="#04150e"/><ellipse cx="995" cy="720" rx="210" ry="80" fill="#04150e"/></g>
  <g fill="#0a2518"><path d="M103 502 l32 -155 l30 155Z"/><path d="M172 502 l38 -190 l36 190Z"/><path d="M1010 412 l43 -225 l43 225Z"/><path d="M1100 424 l35 -180 l35 180Z"/></g>
  <path d="M855 384 v-115" stroke="#fff" stroke-width="7"/><path d="M855 270 l95 31 l-95 30Z" fill="#e94b4b"/>
  <circle cx="416" cy="768" r="18" fill="#fff"/>
</svg>
