<svg xmlns="http://www.w3.org/2000/svg" viewBox="0 0 1600 900">
  <defs>
    <linearGradient id="sky" x1="0" y1="0" x2="0" y2="1">
      <stop offset="0" stop-color="#0b251a"/>
      <stop offset=".52" stop-color="#173f2b"/>
      <stop offset="1" stop-color="#07150f"/>
    </linearGradient>
    <radialGradient id="sun" cx="70%" cy="18%" r="44%">
      <stop offset="0" stop-color="#f6d17a" stop-opacity=".85"/>
      <stop offset=".34" stop-color="#f6d17a" stop-opacity=".18"/>
      <stop offset="1" stop-color="#f6d17a" stop-opacity="0"/>
    </radialGradient>
    <linearGradient id="fairway" x1="0" y1="0" x2="1" y2="1">
      <stop offset="0" stop-color="#244f31"/>
      <stop offset=".5" stop-color="#4f7d3d"/>
      <stop offset="1" stop-color="#142d1c"/>
    </linearGradient>
    <filter id="blur"><feGaussianBlur stdDeviation="18"/></filter>
  </defs>
  <rect width="1600" height="900" fill="url(#sky)"/>
  <rect width="1600" height="900" fill="url(#sun)"/>
  <path d="M0 520 C240 450 430 470 650 520 C910 580 1110 505 1600 450 L1600 900 L0 900 Z" fill="#0e2618"/>
  <path d="M0 610 C280 545 440 560 680 615 C950 678 1150 600 1600 555 L1600 900 L0 900 Z" fill="url(#fairway)"/>
  <path d="M410 900 C580 730 770 640 1050 565 C960 688 830 802 680 900 Z" fill="#81a35a" opacity=".38"/>
  <path d="M0 790 C210 705 480 675 760 705 C1050 735 1290 715 1600 650 L1600 900 L0 900 Z" fill="#0a1d12" opacity=".48"/>
  <g opacity=".55" filter="url(#blur)">
    <circle cx="1250" cy="185" r="70" fill="#ffe4a0"/>
  </g>
  <g opacity=".32">
    <path d="M120 520 C210 455 295 420 380 405" stroke="#e9c66e" stroke-width="2" fill="none"/>
    <path d="M125 560 C260 495 430 460 565 460" stroke="#e9c66e" stroke-width="2" fill="none"/>
    <path d="M980 520 C1080 480 1220 455 1370 455" stroke="#e9c66e" stroke-width="2" fill="none"/>
  </g>
  <g transform="translate(1160 470)">
    <line x1="0" y1="0" x2="0" y2="-165" stroke="#f5d47b" stroke-width="5"/>
    <path d="M0 -165 L92 -140 L0 -118 Z" fill="#f5d47b"/>
    <ellipse cx="0" cy="3" rx="42" ry="12" fill="#e8e8da" opacity=".8"/>
  </g>
</svg>
